<svg width="500" height="500" viewBox="0 0 500 500" fill="none" xmlns="http://www.w3.org/2000/svg">
<g clip-path="url(#clip0_280_220)">
<path d="M69.8712 463.965C75.8311 451.713 81.6145 439.372 87.7958 427.233C95.3933 412.313 103.3 397.551 111.117 382.743C116.707 372.152 122.2 361.503 128.042 351.051C135.501 337.705 143.266 324.531 150.902 311.284C154.751 304.608 158.362 297.779 162.509 291.293C171.919 276.577 181.549 262.002 191.186 247.433C194.176 242.913 197.474 238.597 200.903 233.743C201.401 233.102 201.511 232.854 201.821 232.21C201.323 231.802 200.509 231.738 199.625 231.802C199.416 232.118 199.409 232.31 199.535 232.507C191.9 235.521 184.216 238.417 176.648 241.592C171.892 243.587 167.337 246.055 162.647 248.216C150.021 254.033 137.321 259.691 124.744 265.613C109.088 272.985 93.5264 280.56 77.9156 288.029C77.639 288.162 77.2586 288.077 76.3059 287.932C75.4578 287.229 75.2304 286.688 75.003 286.147C84.0194 281.5 93.0316 276.844 102.053 272.207C120.259 262.847 138.418 253.396 156.701 244.188C165.495 239.758 174.532 235.811 183.446 231.617C192.567 227.326 201.796 223.237 210.705 218.542C213.28 217.185 215.063 214.16 216.955 211.704C226.75 198.988 236.414 186.171 246.219 173.463C253.725 163.734 261.138 153.918 269.023 144.502C277.094 134.863 285.448 125.432 294.123 116.335C302.882 107.149 311.728 97.9392 321.404 89.7692C328.558 83.7293 336.661 78.3722 345.15 74.4722C354.783 70.0467 360.612 75.391 363.56 86.9249C366.645 98.9915 368.015 111.615 368.935 124.084C369.914 137.343 369.48 150.706 369.684 164.024C369.702 165.158 369.883 166.289 370.015 167.706C374.185 167.105 378.124 166.537 382.935 166.052C389.563 164.868 395.32 163.601 401.077 162.333C403.809 161.907 406.542 161.48 410.068 161.137C411.896 161.184 412.928 161.148 414.389 161.091C417.904 160.133 420.991 159.195 424.079 158.256C428.06 157.777 432.042 157.299 436.583 157.084C437.428 158.163 437.714 158.977 437.999 159.792C435.903 160.179 433.807 160.566 430.884 160.873C423.671 162.184 417.284 163.576 410.897 164.969C402.183 166.732 393.461 168.457 384.758 170.273C380.422 171.178 376.06 172.056 371.85 173.389C370.838 173.709 369.823 175.762 369.759 177.066C369.248 187.372 368.968 197.69 368.614 208.004C368.277 217.81 368.196 227.633 367.518 237.415C366.918 246.072 365.651 254.683 363.902 263.309C363.272 234.202 362.641 205.095 361.993 175.179C357.447 176.308 353.573 177.245 349.711 178.234C333.633 182.349 317.351 185.816 301.543 190.792C286.018 195.678 270.942 202.011 255.737 207.886C247.66 211.006 239.938 215.225 231.671 217.62C223.289 220.049 219.529 226.543 215.246 232.793C207.431 244.197 199.76 255.7 192.166 267.252C186.513 275.852 180.955 284.52 175.567 293.288C163.921 312.237 152.299 331.203 140.885 350.292C133.305 362.97 126.199 375.93 118.706 388.66C109.578 404.166 100.201 419.524 91.0624 435.024C86.7195 442.389 82.7083 449.95 78.4807 457.384C77.5053 459.1 76.259 460.661 74.6235 462.676C73.7151 463.995 73.3205 464.932 72.9259 465.868C72.9259 465.868 72.9432 465.947 72.6169 466.049C71.8276 466.998 71.3647 467.846 70.9018 468.693C70.6373 469.265 70.3729 469.837 69.641 470.567C69.1081 469.467 69.0426 468.21 68.9772 466.952C68.9772 466.952 69.0713 466.49 69.4024 466.209C69.7794 465.274 69.8253 464.619 69.8712 463.965ZM238.003 207.533C247.59 203.684 257.03 199.398 266.799 196.082C284.418 190.102 302.12 184.303 320.008 179.201C331.998 175.781 344.393 173.803 356.539 170.897C358.379 170.457 361.168 168.567 361.259 167.197C361.601 162.082 361.51 156.818 360.656 151.766C358.747 140.484 356.49 129.25 353.956 118.091C352.665 112.404 350.86 106.758 348.578 101.395C346.234 95.8878 340.19 93.4025 335.892 96.4248C327.088 102.618 318.15 108.856 310.409 116.269C300.175 126.07 290.861 136.859 281.482 147.515C273.709 156.347 266.374 165.566 258.925 174.679C253.159 181.731 247.468 188.845 241.84 196.007C238.603 200.126 235.557 204.396 231.766 209.481C234.331 208.825 235.873 208.431 238.003 207.533Z" fill="#E9EAEA"/>
<path d="M438.36 159.852C437.713 158.977 437.428 158.163 437.017 157.046C443.637 155.809 450.382 154.875 457.966 154.098C460.575 153.617 462.345 152.978 464.116 152.34C464.837 152.252 465.559 152.164 466.679 152.45C467.042 153.526 467.006 154.228 466.97 154.93C464.904 155.299 462.837 155.667 459.938 155.892C453.032 157.04 446.961 158.333 440.889 159.626C440.167 159.722 439.444 159.818 438.36 159.852Z" fill="#EAEAEB"/>
<path d="M467.412 154.997C467.006 154.228 467.042 153.526 467.044 152.473C470.22 151.722 473.43 151.323 477.022 151.337C479.275 150.891 481.144 150.031 483.014 149.172C484.08 149.104 485.147 149.036 486.565 149.321C486.271 150.681 485.623 151.687 484.976 152.694C479.269 153.484 473.562 154.274 467.412 154.997Z" fill="#A7A8A9"/>
<path d="M485.384 152.747C485.623 151.687 486.27 150.681 486.965 149.368C490.933 148.552 494.853 148.042 498.773 147.531C498.909 148.279 499.045 149.027 499.18 149.774C494.718 150.783 490.255 151.791 485.384 152.747Z" fill="#9B9C9D"/>
<path d="M51.9327 300.974C48.5196 304.733 44.1038 305.677 39.4636 305.991C39.261 305.59 39.0585 305.19 38.8559 304.789C42.6899 302.714 46.524 300.639 50.6449 298.745C50.5895 299.43 50.2472 299.934 49.9049 300.437C50.5808 300.616 51.2568 300.795 51.9327 300.974Z" fill="#969698"/>
<path d="M74.6501 286.14C75.2304 286.688 75.4578 287.229 75.9403 287.931C71.6822 290.677 67.169 293.262 61.8975 295.829C60.0629 295.868 58.9866 295.926 57.9103 295.984C60.1241 294.367 62.2282 292.564 64.5785 291.178C67.718 289.326 71.0486 287.799 74.6501 286.14Z" fill="#E6E7E8"/>
<path d="M411.281 165.04C417.284 163.576 423.671 162.184 430.482 160.871C426.906 161.989 422.927 163.117 418.899 164.03C416.528 164.567 414.08 164.762 411.281 165.04Z" fill="#BBBBBD"/>
<path d="M57.5364 295.939C58.9866 295.926 60.0629 295.868 61.537 295.884C58.8543 297.618 55.7738 299.279 52.313 300.957C51.2568 300.795 50.5808 300.616 49.9049 300.437C50.2472 299.934 50.5895 299.43 50.9846 298.663C53.079 297.564 55.1207 296.729 57.5364 295.939Z" fill="#A8A8A9"/>
<path d="M400.645 162.279C395.32 163.601 389.563 164.868 383.373 166.051C388.698 164.719 394.456 163.472 400.645 162.279Z" fill="#BBBCBE"/>
<path d="M441.31 159.654C446.961 158.333 453.032 157.04 459.537 155.864C453.891 157.215 447.811 158.449 441.31 159.654Z" fill="#AEAEAF"/>
<path d="M68.6296 467.062C69.0426 468.21 69.108 469.467 69.4302 470.811C68.5551 472.644 67.4234 474.391 66.2917 476.138C65.9962 476.109 65.7006 476.08 65.4051 476.051C66.3641 473.091 67.3231 470.132 68.6296 467.062Z" fill="#C9C9CA"/>
<path d="M423.643 158.159C420.991 159.195 417.904 160.133 414.368 160.921C413.864 160.551 413.88 160.338 413.966 160.129C417.047 159.44 420.128 158.751 423.643 158.159Z" fill="#B0B1B2"/>
<path d="M482.54 149.122C481.144 150.031 479.275 150.891 477.245 151.592C478.746 150.647 480.405 149.859 482.54 149.122Z" fill="#9B9C9D"/>
<path d="M463.745 152.242C462.345 152.978 460.575 153.617 458.414 154.136C459.807 153.393 461.59 152.769 463.745 152.242Z" fill="#A7A8A9"/>
<path d="M413.73 159.909C413.88 160.338 413.864 160.551 413.94 160.941C412.928 161.148 411.896 161.184 410.484 161.137C411.235 160.599 412.365 160.144 413.73 159.909Z" fill="#BBBCBE"/>
<path d="M73.2326 465.807C73.3205 464.932 73.7151 463.995 74.4308 463.007C74.3478 463.885 73.9435 464.815 73.2326 465.807Z" fill="#C9C9CA"/>
<path d="M71.2141 468.593C71.3647 467.846 71.8276 466.998 72.5765 466.05C72.4172 466.796 71.9718 467.645 71.2141 468.593Z" fill="#C9C9CA"/>
<path d="M69.572 464.083C69.8252 464.619 69.7793 465.274 69.4592 465.98C69.2142 465.422 69.2435 464.812 69.572 464.083Z" fill="#C9C9CA"/>
<path d="M199.695 231.674C200.509 231.738 201.323 231.802 201.394 231.938C200.332 231.898 200.014 231.786 199.695 231.674Z" fill="black"/>
<path d="M199.846 232.768C199.409 232.31 199.416 232.118 199.625 231.802C200.014 231.786 200.332 231.898 201.078 232.283C201.511 232.854 201.401 233.102 200.994 233.402C200.594 233.347 200.376 233.187 199.846 232.768Z" fill="black"/>
</g>
<defs>
<clipPath id="clip0_280_220">
<rect width="500" height="500" fill="white"/>
</clipPath>
</defs>
</svg>
