<svg width="87" height="122" viewBox="0 0 87 122" fill="none" xmlns="http://www.w3.org/2000/svg">
<path d="M0.359219 122V108.57C0.359219 100.297 1.77589 93.4967 4.60922 88.17C7.44255 82.8433 11.4659 78.5367 16.6792 75.25C22.0059 71.85 28.4092 69.0167 35.8892 66.75L46.2592 63.52C50.9059 62.0467 54.8726 60.2333 58.1592 58.08C61.5592 55.9267 64.1659 53.2633 65.9792 50.09C67.7926 46.8033 68.6992 43.0067 68.6992 38.7V38.02C68.6992 31.3333 66.4326 26.12 61.8992 22.38C57.3659 18.5267 51.4159 16.6 44.0492 16.6C36.4559 16.6 30.2792 18.64 25.5192 22.72C20.8726 26.8 18.5492 32.8067 18.5492 40.74V43.46H0.869219V40.91C0.869219 32.2967 2.73922 25.0433 6.47922 19.15C10.2192 13.1433 15.3759 8.55332 21.9492 5.37999C28.5226 2.20666 35.8892 0.619992 44.0492 0.619992C52.2092 0.619992 59.4626 2.14999 65.8092 5.20999C72.2692 8.26999 77.3126 12.5767 80.9392 18.13C84.6792 23.6833 86.5492 30.2 86.5492 37.68V39.21C86.5492 46.9167 85.0192 53.32 81.9592 58.42C78.8992 63.52 74.6492 67.7133 69.2092 71C63.8826 74.2867 57.7059 77.0633 50.6792 79.33L40.6492 82.39C35.3226 83.9767 31.0159 85.7333 27.7292 87.66C24.5559 89.4733 22.1759 91.6833 20.5892 94.29C19.1159 96.8967 18.3792 100.24 18.3792 104.32V106.02H85.5292V122H0.359219Z" fill="white"/>
</svg>
