<svg width="89" height="122" viewBox="0 0 89 122" fill="none" xmlns="http://www.w3.org/2000/svg">
<path d="M45.1322 121.38C36.4055 121.38 28.6422 119.793 21.8422 116.62C15.0421 113.447 9.71548 108.857 5.86215 102.85C2.12215 96.8433 0.252149 89.7033 0.252149 81.43V78.37H18.1022V81.09C18.1022 88.57 20.5388 94.52 25.4121 98.94C30.3988 103.247 36.9722 105.4 45.1322 105.4C53.2922 105.4 59.6388 103.36 64.1721 99.28C68.7055 95.2 70.9722 90.0433 70.9722 83.81V82.28C70.9722 77.86 69.8955 74.29 67.7421 71.57C65.5888 68.85 62.6988 66.8667 59.0721 65.62C55.4455 64.26 51.3655 63.58 46.8322 63.58H25.2421V43.01L67.0622 18.36V15.98H3.14215V-8.10623e-06H86.4422V24.14L46.4921 47.94V50.32H53.8022C59.8088 50.32 65.4755 51.4533 70.8022 53.72C76.1288 55.9867 80.4355 59.4433 83.7222 64.09C87.1222 68.7367 88.8222 74.63 88.8222 81.77V83.81C88.8222 91.4033 87.0088 98.0333 83.3822 103.7C79.7555 109.253 74.6555 113.617 68.0822 116.79C61.5088 119.85 53.8588 121.38 45.1322 121.38Z" fill="white"/>
</svg>
