<svg width="88" height="125" viewBox="0 0 88 125" fill="none" xmlns="http://www.w3.org/2000/svg">
<path d="M43.5751 124.38C34.9617 124.38 27.3684 122.737 20.7951 119.45C14.2217 116.05 9.12175 111.347 5.49508 105.34C1.86841 99.3333 0.0550787 92.3633 0.0550787 84.43V43.29C0.0550787 33.9967 1.86841 26.1767 5.49508 19.83C9.23508 13.4833 14.4484 8.72333 21.1351 5.54999C27.8217 2.26332 35.5851 0.619992 44.4251 0.619992C53.1517 0.619992 60.6884 2.14999 67.0351 5.20999C73.3817 8.15666 78.2551 12.4067 81.6551 17.96C85.0551 23.4 86.7551 29.8033 86.7551 37.17H68.7351C68.7351 31.2767 66.7517 26.4033 62.7851 22.55C58.9317 18.5833 52.8117 16.6 44.4251 16.6C35.9251 16.6 29.3517 18.8667 24.7051 23.4C20.1717 27.82 17.9051 33.9967 17.9051 41.93V56.21H20.6251C22.5517 53.49 25.6684 50.8833 29.9751 48.39C34.3951 45.8967 40.6284 44.65 48.6751 44.65C55.7017 44.65 62.1617 46.18 68.0551 49.24C73.9484 52.3 78.6518 56.6633 82.1651 62.33C85.7918 67.9967 87.6051 74.8533 87.6051 82.9V84.94C87.6051 92.76 85.7351 99.6733 81.9951 105.68C78.2551 111.573 73.0417 116.163 66.3551 119.45C59.7817 122.737 52.1884 124.38 43.5751 124.38ZM43.7451 108.4C51.6784 108.4 57.9684 106.247 62.6151 101.94C67.3751 97.6333 69.7551 91.8533 69.7551 84.6V83.24C69.7551 78.3667 68.6784 74.1733 66.5251 70.66C64.3717 67.0333 61.3117 64.2 57.3451 62.16C53.4917 60.12 48.9584 59.1 43.7451 59.1C38.6451 59.1 34.1117 60.12 30.1451 62.16C26.2917 64.2 23.2884 67.0333 21.1351 70.66C18.9817 74.1733 17.9051 78.3667 17.9051 83.24V84.6C17.9051 91.8533 20.2284 97.6333 24.8751 101.94C29.6351 106.247 35.9251 108.4 43.7451 108.4Z" fill="white"/>
</svg>
