<svg width="800" height="189" viewBox="0 0 800 189" fill="none" xmlns="http://www.w3.org/2000/svg">
<g clip-path="url(#clip0_704_800)">
<g filter="url(#filter0_d_704_800)">
<path d="M472.266 0.00366211H478.516L481.25 4.30054L482.812 9.37866L483.984 19.9255L484.375 26.5662V43.7537L491.406 42.1912L508.984 39.0662L537.5 35.1599L555.859 32.8162L578.516 29.3005L587.5 28.1287H590.234V29.6912H587.5L586.719 29.3005L569.141 31.6443L572.656 31.2537H576.172V31.6443L555.078 34.3787L528.906 38.2849L506.641 42.1912L485.547 46.488H484.375V55.863L483.594 78.5193L482.422 96.488H481.25L480.859 65.6287V47.2693L460.938 52.3474L449.609 55.863L439.453 59.3787L429.297 63.2849L418.75 67.5818L416.016 69.5349L410.938 76.5662L404.688 85.9412L399.609 93.7537L389.453 110.16L376.172 132.035L370.312 142.191L365.234 150.785L376.562 151.176H789.062L799.609 151.566L799.219 154.301L798.828 154.691L362.891 155.082L358.594 162.113L352.734 172.269L346.094 183.597L342.969 188.676H341.797L342.969 185.16L347.266 176.176L354.688 161.332L358.203 155.082L0 154.691V151.176H353.125L359.766 150.785L360.938 149.613L366.406 139.066L372.656 127.347L378.125 117.972L382.422 110.16L389.062 99.2224L393.359 92.5818L398.828 83.988L402.734 78.9099L406.641 73.4412L398.828 76.5662L384.375 83.2068L372.656 88.6755L357.812 96.0974L348.828 100.394L335.938 106.644L316.406 116.41L312.109 118.754L312.891 117.191L316.406 114.847L327.734 108.988L336.719 103.91L347.266 98.4412L355.859 93.7537L384.766 79.3005L398.047 73.0505L405.469 69.9255L409.766 67.5818L410.938 66.4099H411.719L412.5 64.8474L415.625 61.3318L418.75 57.0349L424.219 49.613L429.297 43.363L432.422 39.4568L437.5 33.2068L442.188 27.738L445.703 23.8318L448.438 20.7068L455.859 13.2849L458.594 10.1599L463.672 5.86304L469.922 1.56616L472.266 0.00366211ZM470.312 9.76929L466.016 12.113L462.109 15.238L458.203 18.7537L453.125 23.4412L447.266 29.6912L442.578 35.1599L438.672 39.4568L434.375 44.9255L430.078 50.0037L424.609 57.4255L421.484 61.3318L420.703 62.8943L424.219 62.113L433.203 58.2068L444.922 53.9099L455.078 50.7849L470.703 46.8787L478.906 44.9255L480.859 44.1443L480.469 36.7224L479.297 28.1287L476.953 18.7537L474.219 12.113L472.656 10.1599L470.312 9.76929ZM564.844 32.0349V32.4255H566.797V32.0349H564.844ZM562.109 32.4255V32.8162H564.062V32.4255H562.109Z" fill="white"/>
</g>
<g filter="url(#filter1_d_704_800)">
<path d="M187.109 121.879H192.188L194.922 122.66L196.875 124.613L200 128.91L203.125 134.769H203.906L207.422 123.051L207.812 122.269H217.188L212.109 138.285L209.766 144.144L208.984 144.535H202.734L200.781 143.754L197.266 139.457L192.578 132.035L191.797 131.644L187.891 143.754L187.109 144.535H178.516L178.906 142.582L182.812 130.472L184.766 123.832L185.938 122.269L187.109 121.879Z" fill="white"/>
</g>
<g filter="url(#filter2_d_704_800)">
<path d="M98.0469 121.879H118.75L123.828 122.269L124.609 123.441L123.047 130.472L118.359 144.535H114.062L109.375 144.144L110.547 140.629L112.109 136.332V135.551H101.562L98.8281 135.941L96.4844 144.144L95.7031 144.535H87.1094L86.7188 143.754L91.4062 129.691L93.3594 124.613L96.0938 122.269L98.0469 121.879ZM101.562 126.176L100.781 128.519L100.391 130.863H113.281L114.453 128.91L114.844 126.566L112.109 126.176H101.562Z" fill="white"/>
</g>
<g filter="url(#filter3_d_704_800)">
<path d="M485.547 123.832H505.078L511.719 124.222L512.891 125.004V128.519L511.328 133.597L509.375 136.722L508.203 137.113L501.562 137.894L505.859 144.144L506.641 145.316V146.488H498.828L497.266 145.707L494.141 141.019L491.406 137.894L490.625 137.504H488.281L486.719 140.629L485.938 142.972L485.547 145.707L484.766 146.488H476.172L475.781 145.316L477.344 141.019L480.859 129.691L482.422 124.613L482.812 124.222L485.547 123.832ZM490.234 128.519L489.453 132.426L489.844 133.207H502.344L503.125 132.426L503.516 128.91L503.125 128.519H490.234Z" fill="white"/>
</g>
<g filter="url(#filter4_d_704_800)">
<path d="M670.312 123.832H693.359L697.656 124.222L696.875 126.566L695.703 128.519H673.047V131.254L672.656 133.207H691.797L693.359 134.769L692.969 138.285L690.625 144.144L689.062 146.097L687.109 146.488H659.375L658.984 145.707L660.156 141.801L683.203 141.41L683.984 137.894L664.062 137.504L663.281 137.113V133.597L664.453 128.91L666.797 125.394L667.969 124.222L670.312 123.832Z" fill="white"/>
</g>
<g filter="url(#filter5_d_704_800)">
<path d="M575.391 123.832H600.781L605.469 124.222L605.078 126.957L604.297 128.519H581.641L580.859 133.207H589.062L589.453 135.16L588.281 137.113L585.547 137.504H578.906L578.125 141.41L600.391 141.801L599.219 146.097L598.828 146.488H567.188L571.875 131.254L573.828 125.004L574.219 124.222L575.391 123.832Z" fill="white"/>
</g>
<g filter="url(#filter6_d_704_800)">
<path d="M277.344 121.879H302.734L308.594 122.269L307.422 125.785L307.031 126.176L296.094 126.566L291.406 141.41L289.844 144.535H281.25L281.641 142.582L286.328 128.519L287.109 126.566L276.172 126.176L275.781 125.394L277.344 121.879Z" fill="white"/>
</g>
<g filter="url(#filter7_d_704_800)">
<path d="M519.922 164.066H533.594L535.156 164.457L534.766 167.582L533.203 170.707L530.078 171.488L531.25 173.832L530.859 175.785L527.734 175.394L526.172 173.832L525 171.879L522.266 170.707L521.484 174.222L520.312 175.394H516.406L517.969 168.754L519.531 164.457L519.922 164.066ZM524.609 166.019L523.828 166.41V167.972L525.391 168.754H528.906L529.688 167.972L529.297 166.41L527.734 166.019H524.609Z" fill="white"/>
</g>
<g filter="url(#filter8_d_704_800)">
<path d="M694.922 164.066H708.203L708.984 164.457L708.594 168.363L706.641 174.222L705.469 175.394L702.734 175.785L701.953 175.004L702.344 171.097H696.094L694.922 175.004L692.969 175.785L690.625 175.394L691.016 172.66L692.969 166.019L694.922 164.066ZM698.047 166.019L697.266 166.41V167.972L701.172 168.754H703.125L703.906 166.801L702.734 166.019H698.047Z" fill="white"/>
</g>
<g filter="url(#filter9_d_704_800)">
<path d="M608.203 164.066H622.656L623.047 164.847L622.266 166.41H610.547V168.363H618.359L620.703 168.754L620.312 172.269L618.75 175.004L615.234 175.785H603.906L603.516 173.832L604.297 173.051H613.281L615.234 172.269L615.625 171.097H605.859L605.469 170.707V167.582L606.641 165.238L608.203 164.066Z" fill="white"/>
</g>
<g filter="url(#filter10_d_704_800)">
<path d="M564.844 164.066H577.734L578.516 164.457L578.125 168.363L576.172 173.832L574.609 175.394L571.484 175.785H563.281L560.547 175.004L560.156 173.832L562.109 167.582L563.672 164.847L564.844 164.066ZM567.969 166.41L566.016 168.363L565.625 169.535V173.051L566.016 173.441H570.312L572.266 172.269L573.047 170.707L573.438 166.801L572.656 166.41H567.969Z" fill="white"/>
</g>
<g filter="url(#filter11_d_704_800)">
<path d="M781.25 164.066H796.484L796.094 166.41H783.984L785.547 167.972L787.891 169.144V170.707L786.328 171.097H783.203V172.66L792.969 173.051L793.359 175.004L792.188 175.785H780.469L777.734 175.394L777.344 174.613L780.469 164.847L781.25 164.066Z" fill="white"/>
</g>
<g filter="url(#filter12_d_704_800)">
<path d="M476.953 164.066H491.797L492.188 164.847L491.016 166.801L479.688 166.41V167.972L483.203 168.754L483.594 170.707L478.906 171.097L478.516 173.051H488.672L489.062 174.613L488.672 175.394L487.109 175.785H476.172L473.047 175.394L473.438 173.051L475.781 164.847L476.953 164.066Z" fill="white"/>
</g>
<g filter="url(#filter13_d_704_800)">
<path d="M657.031 163.676L665.234 164.066L665.625 164.457L665.234 167.972L664.062 170.316L663.281 171.097L652.734 171.488L651.562 175.004L651.172 175.394H646.875L647.266 173.441L649.609 165.238L650.781 164.066L657.031 163.676ZM655.078 166.019L653.906 167.191L654.688 168.754H660.547L660.938 166.801L659.375 166.019H655.078Z" fill="white"/>
</g>
<g filter="url(#filter14_d_704_800)">
<path d="M738.672 164.066H753.125L752.734 166.41L752.344 166.801H741.797L741.016 167.191L739.453 173.051L750 173.441V175.394L747.266 175.785H737.891L734.766 175.394L733.984 174.222L735.938 167.582L737.891 164.457L738.672 164.066Z" fill="white"/>
</g>
<g filter="url(#filter15_d_704_800)">
<path d="M576.172 30.863H579.297V31.2537H576.172V30.863Z" fill="white"/>
</g>
<g filter="url(#filter16_d_704_800)">
<path d="M580.078 30.4724H582.422V30.863H580.078V30.4724Z" fill="white"/>
</g>
<g filter="url(#filter17_d_704_800)">
<path d="M583.203 30.0818H585.156V30.4724H583.203V30.0818Z" fill="white"/>
</g>
</g>
<defs>
<filter id="filter0_d_704_800" x="-2" y="0.00366211" width="803.609" height="194.672" filterUnits="userSpaceOnUse" color-interpolation-filters="sRGB">
<feFlood flood-opacity="0" result="BackgroundImageFix"/>
<feColorMatrix in="SourceAlpha" type="matrix" values="0 0 0 0 0 0 0 0 0 0 0 0 0 0 0 0 0 0 127 0" result="hardAlpha"/>
<feOffset dy="4"/>
<feGaussianBlur stdDeviation="1"/>
<feComposite in2="hardAlpha" operator="out"/>
<feColorMatrix type="matrix" values="0 0 0 0 0 0 0 0 0 0 0 0 0 0 0 0 0 0 0.46 0"/>
<feBlend mode="normal" in2="BackgroundImageFix" result="effect1_dropShadow_704_800"/>
<feBlend mode="normal" in="SourceGraphic" in2="effect1_dropShadow_704_800" result="shape"/>
</filter>
<filter id="filter1_d_704_800" x="176.516" y="121.879" width="42.6719" height="28.6562" filterUnits="userSpaceOnUse" color-interpolation-filters="sRGB">
<feFlood flood-opacity="0" result="BackgroundImageFix"/>
<feColorMatrix in="SourceAlpha" type="matrix" values="0 0 0 0 0 0 0 0 0 0 0 0 0 0 0 0 0 0 127 0" result="hardAlpha"/>
<feOffset dy="4"/>
<feGaussianBlur stdDeviation="1"/>
<feComposite in2="hardAlpha" operator="out"/>
<feColorMatrix type="matrix" values="0 0 0 0 0 0 0 0 0 0 0 0 0 0 0 0 0 0 0.46 0"/>
<feBlend mode="normal" in2="BackgroundImageFix" result="effect1_dropShadow_704_800"/>
<feBlend mode="normal" in="SourceGraphic" in2="effect1_dropShadow_704_800" result="shape"/>
</filter>
<filter id="filter2_d_704_800" x="84.7188" y="121.879" width="41.8906" height="28.6562" filterUnits="userSpaceOnUse" color-interpolation-filters="sRGB">
<feFlood flood-opacity="0" result="BackgroundImageFix"/>
<feColorMatrix in="SourceAlpha" type="matrix" values="0 0 0 0 0 0 0 0 0 0 0 0 0 0 0 0 0 0 127 0" result="hardAlpha"/>
<feOffset dy="4"/>
<feGaussianBlur stdDeviation="1"/>
<feComposite in2="hardAlpha" operator="out"/>
<feColorMatrix type="matrix" values="0 0 0 0 0 0 0 0 0 0 0 0 0 0 0 0 0 0 0.46 0"/>
<feBlend mode="normal" in2="BackgroundImageFix" result="effect1_dropShadow_704_800"/>
<feBlend mode="normal" in="SourceGraphic" in2="effect1_dropShadow_704_800" result="shape"/>
</filter>
<filter id="filter3_d_704_800" x="473.781" y="123.832" width="41.1094" height="28.6562" filterUnits="userSpaceOnUse" color-interpolation-filters="sRGB">
<feFlood flood-opacity="0" result="BackgroundImageFix"/>
<feColorMatrix in="SourceAlpha" type="matrix" values="0 0 0 0 0 0 0 0 0 0 0 0 0 0 0 0 0 0 127 0" result="hardAlpha"/>
<feOffset dy="4"/>
<feGaussianBlur stdDeviation="1"/>
<feComposite in2="hardAlpha" operator="out"/>
<feColorMatrix type="matrix" values="0 0 0 0 0 0 0 0 0 0 0 0 0 0 0 0 0 0 0.46 0"/>
<feBlend mode="normal" in2="BackgroundImageFix" result="effect1_dropShadow_704_800"/>
<feBlend mode="normal" in="SourceGraphic" in2="effect1_dropShadow_704_800" result="shape"/>
</filter>
<filter id="filter4_d_704_800" x="656.984" y="123.832" width="42.6719" height="28.6562" filterUnits="userSpaceOnUse" color-interpolation-filters="sRGB">
<feFlood flood-opacity="0" result="BackgroundImageFix"/>
<feColorMatrix in="SourceAlpha" type="matrix" values="0 0 0 0 0 0 0 0 0 0 0 0 0 0 0 0 0 0 127 0" result="hardAlpha"/>
<feOffset dy="4"/>
<feGaussianBlur stdDeviation="1"/>
<feComposite in2="hardAlpha" operator="out"/>
<feColorMatrix type="matrix" values="0 0 0 0 0 0 0 0 0 0 0 0 0 0 0 0 0 0 0.46 0"/>
<feBlend mode="normal" in2="BackgroundImageFix" result="effect1_dropShadow_704_800"/>
<feBlend mode="normal" in="SourceGraphic" in2="effect1_dropShadow_704_800" result="shape"/>
</filter>
<filter id="filter5_d_704_800" x="565.188" y="123.832" width="42.2812" height="28.6562" filterUnits="userSpaceOnUse" color-interpolation-filters="sRGB">
<feFlood flood-opacity="0" result="BackgroundImageFix"/>
<feColorMatrix in="SourceAlpha" type="matrix" values="0 0 0 0 0 0 0 0 0 0 0 0 0 0 0 0 0 0 127 0" result="hardAlpha"/>
<feOffset dy="4"/>
<feGaussianBlur stdDeviation="1"/>
<feComposite in2="hardAlpha" operator="out"/>
<feColorMatrix type="matrix" values="0 0 0 0 0 0 0 0 0 0 0 0 0 0 0 0 0 0 0.46 0"/>
<feBlend mode="normal" in2="BackgroundImageFix" result="effect1_dropShadow_704_800"/>
<feBlend mode="normal" in="SourceGraphic" in2="effect1_dropShadow_704_800" result="shape"/>
</filter>
<filter id="filter6_d_704_800" x="273.781" y="121.879" width="36.8125" height="28.6562" filterUnits="userSpaceOnUse" color-interpolation-filters="sRGB">
<feFlood flood-opacity="0" result="BackgroundImageFix"/>
<feColorMatrix in="SourceAlpha" type="matrix" values="0 0 0 0 0 0 0 0 0 0 0 0 0 0 0 0 0 0 127 0" result="hardAlpha"/>
<feOffset dy="4"/>
<feGaussianBlur stdDeviation="1"/>
<feComposite in2="hardAlpha" operator="out"/>
<feColorMatrix type="matrix" values="0 0 0 0 0 0 0 0 0 0 0 0 0 0 0 0 0 0 0.46 0"/>
<feBlend mode="normal" in2="BackgroundImageFix" result="effect1_dropShadow_704_800"/>
<feBlend mode="normal" in="SourceGraphic" in2="effect1_dropShadow_704_800" result="shape"/>
</filter>
<filter id="filter7_d_704_800" x="514.406" y="164.066" width="22.75" height="17.7188" filterUnits="userSpaceOnUse" color-interpolation-filters="sRGB">
<feFlood flood-opacity="0" result="BackgroundImageFix"/>
<feColorMatrix in="SourceAlpha" type="matrix" values="0 0 0 0 0 0 0 0 0 0 0 0 0 0 0 0 0 0 127 0" result="hardAlpha"/>
<feOffset dy="4"/>
<feGaussianBlur stdDeviation="1"/>
<feComposite in2="hardAlpha" operator="out"/>
<feColorMatrix type="matrix" values="0 0 0 0 0 0 0 0 0 0 0 0 0 0 0 0 0 0 0.46 0"/>
<feBlend mode="normal" in2="BackgroundImageFix" result="effect1_dropShadow_704_800"/>
<feBlend mode="normal" in="SourceGraphic" in2="effect1_dropShadow_704_800" result="shape"/>
</filter>
<filter id="filter8_d_704_800" x="688.625" y="164.066" width="22.3594" height="17.7188" filterUnits="userSpaceOnUse" color-interpolation-filters="sRGB">
<feFlood flood-opacity="0" result="BackgroundImageFix"/>
<feColorMatrix in="SourceAlpha" type="matrix" values="0 0 0 0 0 0 0 0 0 0 0 0 0 0 0 0 0 0 127 0" result="hardAlpha"/>
<feOffset dy="4"/>
<feGaussianBlur stdDeviation="1"/>
<feComposite in2="hardAlpha" operator="out"/>
<feColorMatrix type="matrix" values="0 0 0 0 0 0 0 0 0 0 0 0 0 0 0 0 0 0 0.46 0"/>
<feBlend mode="normal" in2="BackgroundImageFix" result="effect1_dropShadow_704_800"/>
<feBlend mode="normal" in="SourceGraphic" in2="effect1_dropShadow_704_800" result="shape"/>
</filter>
<filter id="filter9_d_704_800" x="601.516" y="164.066" width="23.5312" height="17.7188" filterUnits="userSpaceOnUse" color-interpolation-filters="sRGB">
<feFlood flood-opacity="0" result="BackgroundImageFix"/>
<feColorMatrix in="SourceAlpha" type="matrix" values="0 0 0 0 0 0 0 0 0 0 0 0 0 0 0 0 0 0 127 0" result="hardAlpha"/>
<feOffset dy="4"/>
<feGaussianBlur stdDeviation="1"/>
<feComposite in2="hardAlpha" operator="out"/>
<feColorMatrix type="matrix" values="0 0 0 0 0 0 0 0 0 0 0 0 0 0 0 0 0 0 0.46 0"/>
<feBlend mode="normal" in2="BackgroundImageFix" result="effect1_dropShadow_704_800"/>
<feBlend mode="normal" in="SourceGraphic" in2="effect1_dropShadow_704_800" result="shape"/>
</filter>
<filter id="filter10_d_704_800" x="558.156" y="164.066" width="22.3594" height="17.7188" filterUnits="userSpaceOnUse" color-interpolation-filters="sRGB">
<feFlood flood-opacity="0" result="BackgroundImageFix"/>
<feColorMatrix in="SourceAlpha" type="matrix" values="0 0 0 0 0 0 0 0 0 0 0 0 0 0 0 0 0 0 127 0" result="hardAlpha"/>
<feOffset dy="4"/>
<feGaussianBlur stdDeviation="1"/>
<feComposite in2="hardAlpha" operator="out"/>
<feColorMatrix type="matrix" values="0 0 0 0 0 0 0 0 0 0 0 0 0 0 0 0 0 0 0.46 0"/>
<feBlend mode="normal" in2="BackgroundImageFix" result="effect1_dropShadow_704_800"/>
<feBlend mode="normal" in="SourceGraphic" in2="effect1_dropShadow_704_800" result="shape"/>
</filter>
<filter id="filter11_d_704_800" x="775.344" y="164.066" width="23.1406" height="17.7188" filterUnits="userSpaceOnUse" color-interpolation-filters="sRGB">
<feFlood flood-opacity="0" result="BackgroundImageFix"/>
<feColorMatrix in="SourceAlpha" type="matrix" values="0 0 0 0 0 0 0 0 0 0 0 0 0 0 0 0 0 0 127 0" result="hardAlpha"/>
<feOffset dy="4"/>
<feGaussianBlur stdDeviation="1"/>
<feComposite in2="hardAlpha" operator="out"/>
<feColorMatrix type="matrix" values="0 0 0 0 0 0 0 0 0 0 0 0 0 0 0 0 0 0 0.46 0"/>
<feBlend mode="normal" in2="BackgroundImageFix" result="effect1_dropShadow_704_800"/>
<feBlend mode="normal" in="SourceGraphic" in2="effect1_dropShadow_704_800" result="shape"/>
</filter>
<filter id="filter12_d_704_800" x="471.047" y="164.066" width="23.1406" height="17.7188" filterUnits="userSpaceOnUse" color-interpolation-filters="sRGB">
<feFlood flood-opacity="0" result="BackgroundImageFix"/>
<feColorMatrix in="SourceAlpha" type="matrix" values="0 0 0 0 0 0 0 0 0 0 0 0 0 0 0 0 0 0 127 0" result="hardAlpha"/>
<feOffset dy="4"/>
<feGaussianBlur stdDeviation="1"/>
<feComposite in2="hardAlpha" operator="out"/>
<feColorMatrix type="matrix" values="0 0 0 0 0 0 0 0 0 0 0 0 0 0 0 0 0 0 0.46 0"/>
<feBlend mode="normal" in2="BackgroundImageFix" result="effect1_dropShadow_704_800"/>
<feBlend mode="normal" in="SourceGraphic" in2="effect1_dropShadow_704_800" result="shape"/>
</filter>
<filter id="filter13_d_704_800" x="644.875" y="163.676" width="22.75" height="17.7188" filterUnits="userSpaceOnUse" color-interpolation-filters="sRGB">
<feFlood flood-opacity="0" result="BackgroundImageFix"/>
<feColorMatrix in="SourceAlpha" type="matrix" values="0 0 0 0 0 0 0 0 0 0 0 0 0 0 0 0 0 0 127 0" result="hardAlpha"/>
<feOffset dy="4"/>
<feGaussianBlur stdDeviation="1"/>
<feComposite in2="hardAlpha" operator="out"/>
<feColorMatrix type="matrix" values="0 0 0 0 0 0 0 0 0 0 0 0 0 0 0 0 0 0 0.46 0"/>
<feBlend mode="normal" in2="BackgroundImageFix" result="effect1_dropShadow_704_800"/>
<feBlend mode="normal" in="SourceGraphic" in2="effect1_dropShadow_704_800" result="shape"/>
</filter>
<filter id="filter14_d_704_800" x="731.984" y="164.066" width="23.1406" height="17.7188" filterUnits="userSpaceOnUse" color-interpolation-filters="sRGB">
<feFlood flood-opacity="0" result="BackgroundImageFix"/>
<feColorMatrix in="SourceAlpha" type="matrix" values="0 0 0 0 0 0 0 0 0 0 0 0 0 0 0 0 0 0 127 0" result="hardAlpha"/>
<feOffset dy="4"/>
<feGaussianBlur stdDeviation="1"/>
<feComposite in2="hardAlpha" operator="out"/>
<feColorMatrix type="matrix" values="0 0 0 0 0 0 0 0 0 0 0 0 0 0 0 0 0 0 0.46 0"/>
<feBlend mode="normal" in2="BackgroundImageFix" result="effect1_dropShadow_704_800"/>
<feBlend mode="normal" in="SourceGraphic" in2="effect1_dropShadow_704_800" result="shape"/>
</filter>
<filter id="filter15_d_704_800" x="574.172" y="30.863" width="7.125" height="6.39062" filterUnits="userSpaceOnUse" color-interpolation-filters="sRGB">
<feFlood flood-opacity="0" result="BackgroundImageFix"/>
<feColorMatrix in="SourceAlpha" type="matrix" values="0 0 0 0 0 0 0 0 0 0 0 0 0 0 0 0 0 0 127 0" result="hardAlpha"/>
<feOffset dy="4"/>
<feGaussianBlur stdDeviation="1"/>
<feComposite in2="hardAlpha" operator="out"/>
<feColorMatrix type="matrix" values="0 0 0 0 0 0 0 0 0 0 0 0 0 0 0 0 0 0 0.46 0"/>
<feBlend mode="normal" in2="BackgroundImageFix" result="effect1_dropShadow_704_800"/>
<feBlend mode="normal" in="SourceGraphic" in2="effect1_dropShadow_704_800" result="shape"/>
</filter>
<filter id="filter16_d_704_800" x="578.078" y="30.4724" width="6.34375" height="6.39062" filterUnits="userSpaceOnUse" color-interpolation-filters="sRGB">
<feFlood flood-opacity="0" result="BackgroundImageFix"/>
<feColorMatrix in="SourceAlpha" type="matrix" values="0 0 0 0 0 0 0 0 0 0 0 0 0 0 0 0 0 0 127 0" result="hardAlpha"/>
<feOffset dy="4"/>
<feGaussianBlur stdDeviation="1"/>
<feComposite in2="hardAlpha" operator="out"/>
<feColorMatrix type="matrix" values="0 0 0 0 0 0 0 0 0 0 0 0 0 0 0 0 0 0 0.46 0"/>
<feBlend mode="normal" in2="BackgroundImageFix" result="effect1_dropShadow_704_800"/>
<feBlend mode="normal" in="SourceGraphic" in2="effect1_dropShadow_704_800" result="shape"/>
</filter>
<filter id="filter17_d_704_800" x="581.203" y="30.0818" width="5.95312" height="6.39062" filterUnits="userSpaceOnUse" color-interpolation-filters="sRGB">
<feFlood flood-opacity="0" result="BackgroundImageFix"/>
<feColorMatrix in="SourceAlpha" type="matrix" values="0 0 0 0 0 0 0 0 0 0 0 0 0 0 0 0 0 0 127 0" result="hardAlpha"/>
<feOffset dy="4"/>
<feGaussianBlur stdDeviation="1"/>
<feComposite in2="hardAlpha" operator="out"/>
<feColorMatrix type="matrix" values="0 0 0 0 0 0 0 0 0 0 0 0 0 0 0 0 0 0 0.46 0"/>
<feBlend mode="normal" in2="BackgroundImageFix" result="effect1_dropShadow_704_800"/>
<feBlend mode="normal" in="SourceGraphic" in2="effect1_dropShadow_704_800" result="shape"/>
</filter>
<clipPath id="clip0_704_800">
<rect width="800" height="188.679" fill="white"/>
</clipPath>
</defs>
</svg>
