<svg width="408" height="595" viewBox="0 0 408 595" fill="none" xmlns="http://www.w3.org/2000/svg">
<path d="M12.5056 93.6992C9.07326 81.5834 15.1881 68.8058 26.7766 63.8784L140.206 15.6485C142.718 14.5802 145.389 13.9306 148.112 13.7257L319.984 0.789029C326.412 0.305238 332.778 2.32269 337.753 6.42026L341.689 9.6616C345.165 12.5241 347.803 16.2722 349.325 20.5101L404.411 173.9C406.406 179.454 406.372 185.534 404.314 191.065L285.5 510.5L259.2 567.146C255.374 575.387 247.378 580.904 238.315 581.555L91.7906 592.076C77.3156 593.116 65 581.653 65 567.14V282.473C65 280.169 64.6815 277.876 64.0534 275.659L12.5056 93.6992Z" fill="#0B0B0B" fill-opacity="0.75"/>
<path d="M199.4 16.912C205.491 12.8437 213.06 11.6515 220.107 13.6502L385.822 60.6519C396.577 63.7026 404 73.5234 404 84.7032V211.026C404 212.212 403.915 213.397 403.747 214.572L369.667 452.379C368.337 461.662 361.923 469.419 353.056 472.471L263.26 503.378C261.097 504.122 259.046 505.16 257.166 506.462L143.065 585.455C135.092 590.975 124.647 591.386 116.264 586.51L78.5961 564.599C72.7792 561.215 68.572 555.63 66.9258 549.105L2.68855 294.483C1.27346 288.874 1.84736 282.947 4.31243 277.714L91.0417 93.5884C92.9773 89.4791 95.9958 85.9749 99.7731 83.452L199.4 16.912Z" fill="#404040" fill-opacity="0.25"/>
</svg>
